<svg xmlns="http://www.w3.org/2000/svg" viewBox="0 0 364 306" width="364" height="306" role="img" aria-label="Squares built on the components of v, with areas 9 and 16">
  <rect x="0.5" y="0.5" width="363" height="305" rx="10" fill="#f6efe3" stroke="#d9c9ae" stroke-width="1"/>
  <polyline points="26.0,6.0 26.0,300.0" fill="none" stroke="#d6c6ac" stroke-width="1.0" stroke-opacity="1.0" stroke-linecap="round" stroke-linejoin="round"/>
  <polyline points="56.0,6.0 56.0,300.0" fill="none" stroke="#d6c6ac" stroke-width="1.0" stroke-opacity="1.0" stroke-linecap="round" stroke-linejoin="round"/>
  <polyline points="86.0,6.0 86.0,300.0" fill="none" stroke="#d6c6ac" stroke-width="1.0" stroke-opacity="1.0" stroke-linecap="round" stroke-linejoin="round"/>
  <polyline points="116.0,6.0 116.0,300.0" fill="none" stroke="#d6c6ac" stroke-width="1.0" stroke-opacity="1.0" stroke-linecap="round" stroke-linejoin="round"/>
  <polyline points="146.0,6.0 146.0,300.0" fill="none" stroke="#d6c6ac" stroke-width="1.0" stroke-opacity="1.0" stroke-linecap="round" stroke-linejoin="round"/>
  <polyline points="176.0,6.0 176.0,300.0" fill="none" stroke="#d6c6ac" stroke-width="1.0" stroke-opacity="1.0" stroke-linecap="round" stroke-linejoin="round"/>
  <polyline points="206.0,6.0 206.0,300.0" fill="none" stroke="#d6c6ac" stroke-width="1.0" stroke-opacity="1.0" stroke-linecap="round" stroke-linejoin="round"/>
  <polyline points="236.0,6.0 236.0,300.0" fill="none" stroke="#d6c6ac" stroke-width="1.0" stroke-opacity="1.0" stroke-linecap="round" stroke-linejoin="round"/>
  <polyline points="266.0,6.0 266.0,300.0" fill="none" stroke="#d6c6ac" stroke-width="1.0" stroke-opacity="1.0" stroke-linecap="round" stroke-linejoin="round"/>
  <polyline points="296.0,6.0 296.0,300.0" fill="none" stroke="#d6c6ac" stroke-width="1.0" stroke-opacity="1.0" stroke-linecap="round" stroke-linejoin="round"/>
  <polyline points="326.0,6.0 326.0,300.0" fill="none" stroke="#d6c6ac" stroke-width="1.0" stroke-opacity="1.0" stroke-linecap="round" stroke-linejoin="round"/>
  <polyline points="6.0,296.0 358.0,296.0" fill="none" stroke="#d6c6ac" stroke-width="1.0" stroke-opacity="1.0" stroke-linecap="round" stroke-linejoin="round"/>
  <polyline points="6.0,266.0 358.0,266.0" fill="none" stroke="#d6c6ac" stroke-width="1.0" stroke-opacity="1.0" stroke-linecap="round" stroke-linejoin="round"/>
  <polyline points="6.0,236.0 358.0,236.0" fill="none" stroke="#d6c6ac" stroke-width="1.0" stroke-opacity="1.0" stroke-linecap="round" stroke-linejoin="round"/>
  <polyline points="6.0,206.0 358.0,206.0" fill="none" stroke="#d6c6ac" stroke-width="1.0" stroke-opacity="1.0" stroke-linecap="round" stroke-linejoin="round"/>
  <polyline points="6.0,176.0 358.0,176.0" fill="none" stroke="#d6c6ac" stroke-width="1.0" stroke-opacity="1.0" stroke-linecap="round" stroke-linejoin="round"/>
  <polyline points="6.0,146.0 358.0,146.0" fill="none" stroke="#d6c6ac" stroke-width="1.0" stroke-opacity="1.0" stroke-linecap="round" stroke-linejoin="round"/>
  <polyline points="6.0,116.0 358.0,116.0" fill="none" stroke="#d6c6ac" stroke-width="1.0" stroke-opacity="1.0" stroke-linecap="round" stroke-linejoin="round"/>
  <polyline points="6.0,86.0 358.0,86.0" fill="none" stroke="#d6c6ac" stroke-width="1.0" stroke-opacity="1.0" stroke-linecap="round" stroke-linejoin="round"/>
  <polyline points="6.0,56.0 358.0,56.0" fill="none" stroke="#d6c6ac" stroke-width="1.0" stroke-opacity="1.0" stroke-linecap="round" stroke-linejoin="round"/>
  <polyline points="6.0,176.0 358.0,176.0" fill="none" stroke="#9c8f7c" stroke-width="1.3" stroke-opacity="1.0" stroke-linecap="round" stroke-linejoin="round"/>
  <polyline points="56.0,6.0 56.0,300.0" fill="none" stroke="#9c8f7c" stroke-width="1.3" stroke-opacity="1.0" stroke-linecap="round" stroke-linejoin="round"/>
  <rect x="56" y="176" width="90" height="90" fill="#bf5b2e" fill-opacity="0.13" stroke="#bf5b2e" stroke-width="1.4" stroke-opacity="0.55"/>
  <rect x="146" y="56" width="120" height="120" fill="#5f7161" fill-opacity="0.13" stroke="#5f7161" stroke-width="1.4" stroke-opacity="0.55"/>
  <polyline points="56.0,176.0 146.0,176.0" fill="none" stroke="#bf5b2e" stroke-width="2.2" stroke-opacity="0.8" stroke-linecap="round" stroke-linejoin="round"/>
  <polyline points="146.0,176.0 146.0,56.0" fill="none" stroke="#5f7161" stroke-width="2.2" stroke-opacity="0.8" stroke-linecap="round" stroke-linejoin="round"/>
  <polyline points="56.0,176.0 139.4,64.8" fill="none" stroke="#2f2a25" stroke-width="2.8" stroke-opacity="1.0" stroke-linecap="round" stroke-linejoin="round"/><path d="M146.0,56.0 L143.0,68.8 L134.6,62.4 Z" fill="#2f2a25" fill-opacity="1.0"/>
  <rect x="72.3" y="211.5" width="57.4" height="19.0" rx="3" fill="#f6efe3" opacity="0.9"/><text x="101.0" y="221.0" fill="#bf5b2e" font-family="ui-monospace, SFMono-Regular, SF Mono, Menlo, Consolas, monospace" font-size="13" text-anchor="middle" dominant-baseline="middle">3² = 9</text>
  <rect x="173.3" y="106.5" width="65.4" height="19.0" rx="3" fill="#f6efe3" opacity="0.9"/><text x="206.0" y="116.0" fill="#5f7161" font-family="ui-monospace, SFMono-Regular, SF Mono, Menlo, Consolas, monospace" font-size="13" text-anchor="middle" dominant-baseline="middle">4² = 16</text>
  <rect x="80.3" y="90.0" width="17.3" height="22.0" rx="3" fill="#f6efe3" opacity="0.9"/><text x="89.0" y="101.0" fill="#2f2a25" font-family="Iowan Old Style, Palatino Linotype, Palatino, Georgia, serif" font-size="16" text-anchor="middle" dominant-baseline="middle" font-style="italic">v</text>
</svg>
